<?xml version="1.0" encoding="UTF-8"?>
<svg id="Capa_2" data-name="Capa 2" xmlns="http://www.w3.org/2000/svg" viewBox="0 0 100.49 97.98">
  <defs>
    <style>
      .cls-1 {
        fill: none;
        stroke: #c6c6c6;
        stroke-miterlimit: 10;
        stroke-width: .5px;
      }

      .cls-2 {
        fill: #3c3c3b;
      }

      .cls-3 {
        fill: #706f6f;
      }

      .cls-4 {
        fill: #1d1d1b;
      }
    </style>
  </defs>
  <g id="Capa_1-2" data-name="Capa 1">
    <g>
      <g>
        <path class="cls-2" d="m12.99,26.88h.56l1.48,5h-.48l-.41-1.46h-1.75l-.41,1.46h-.48l1.48-5Zm1.06,3.17l-.77-2.82h-.01l-.77,2.82h1.55Z"/>
        <path class="cls-2" d="m15.38,26.88h.42v1.84h.01c.09-.39.41-.64.87-.64.82,0,1.19.66,1.19,1.94s-.37,1.95-1.19,1.95c-.44,0-.8-.27-.91-.7h-.01v.62h-.38v-5Zm1.23,4.73c.42,0,.81-.22.81-1.6s-.39-1.59-.81-1.59-.81.22-.81,1.59.39,1.6.81,1.6Z"/>
        <path class="cls-2" d="m18.53,28.16h.42v2.62c0,.6.2.83.64.83.48,0,.81-.38.81-.95v-2.5h.42v3.72h-.38v-.52h-.01c-.21.41-.57.6-.95.6-.57,0-.95-.29-.95-.99v-2.81Z"/>
        <path class="cls-2" d="m21.64,28.16h.38v.52h.01c.21-.41.57-.6.95-.6.57,0,.95.29.95.99v2.81h-.42v-2.69c0-.51-.21-.76-.64-.76-.49,0-.82.38-.82.95v2.5h-.42v-3.72Z"/>
        <path class="cls-2" d="m26.7,31.27h-.01c-.11.43-.47.7-.91.7-.82,0-1.19-.66-1.19-1.95s.37-1.94,1.19-1.94c.46,0,.78.25.87.64h.01v-1.84h.42v5h-.38v-.62Zm-.85.35c.43,0,.81-.22.81-1.6s-.38-1.59-.81-1.59-.81.22-.81,1.59.39,1.6.81,1.6Z"/>
        <path class="cls-2" d="m27.78,29.27c0-.76.36-1.19,1.15-1.19s1.05.4,1.05.99v2.2c0,.21.07.31.22.31h.12v.31c-.08.03-.14.04-.2.04-.33,0-.54-.08-.54-.46v-.13h-.01c-.17.49-.55.63-.96.63-.65,0-.95-.41-.95-1.05,0-.49.22-.88.75-1.03l.79-.22c.29-.08.36-.15.36-.59,0-.48-.27-.64-.64-.64-.5,0-.71.3-.71.84h-.42Zm1.78.51h-.01c-.04.13-.28.2-.45.25l-.35.09c-.42.11-.64.33-.64.77s.22.73.59.73c.51,0,.86-.38.86-1.05v-.79Z"/>
        <path class="cls-2" d="m30.83,28.16h.38v.52h.01c.21-.41.57-.6.95-.6.57,0,.95.29.95.99v2.81h-.42v-2.69c0-.51-.21-.76-.64-.76-.49,0-.82.38-.82.95v2.5h-.42v-3.72Z"/>
        <path class="cls-2" d="m34.1,28.51h-.51v-.35h.51v-1.03h.42v1.03h.66v.35h-.66v2.67c0,.29.13.39.4.39.08,0,.17-.01.26-.04v.35s-.15.04-.29.04c-.57,0-.78-.15-.78-.65v-2.76Z"/>
        <path class="cls-2" d="m37.92,30.65c-.06.79-.5,1.32-1.2,1.32-.78,0-1.25-.55-1.25-1.95,0-1.29.46-1.94,1.28-1.94s1.2.57,1.2,1.81v.15h-2.03v.17c0,1.07.38,1.4.79,1.4.44,0,.71-.31.78-.97h.42Zm-.41-.96c-.01-.92-.27-1.26-.79-1.26s-.78.34-.79,1.26h1.58Z"/>
        <path class="cls-2" d="m39.2,30.03c-.52-.2-.71-.51-.71-.88,0-.76.48-1.07,1.11-1.07.7,0,1.02.36,1.02,1.04v.11h-.42v-.11c0-.48-.22-.69-.61-.69-.49,0-.68.26-.68.63,0,.26.08.46.5.62l.61.23c.5.19.69.54.69.95,0,.64-.36,1.11-1.15,1.11s-1.14-.32-1.14-1.16v-.12h.42v.1c0,.55.24.83.71.83.45,0,.74-.25.74-.67,0-.33-.13-.54-.5-.69l-.59-.23Z"/>
      </g>
      <g>
        <path class="cls-2" d="m21.08,35.16h.38v.53h.01c.13-.34.44-.62.92-.62.83,0,1.18.66,1.18,1.95s-.37,1.94-1.19,1.94c-.46,0-.78-.25-.87-.64h-.01v1.79h-.42v-4.95Zm1.25.27c-.24,0-.45.13-.59.33-.18.26-.24.62-.24,1.27,0,1.37.39,1.59.81,1.59s.81-.22.81-1.59-.39-1.6-.8-1.6Z"/>
        <path class="cls-2" d="m26.52,37.65c-.06.79-.5,1.32-1.2,1.32-.78,0-1.25-.55-1.25-1.95,0-1.29.46-1.94,1.28-1.94s1.2.57,1.2,1.81v.15h-2.03v.17c0,1.07.38,1.4.79,1.4.44,0,.71-.31.78-.97h.42Zm-.41-.96c-.01-.92-.27-1.26-.79-1.26s-.78.34-.79,1.26h1.58Z"/>
        <path class="cls-2" d="m27.21,35.16h.42v.58h.01c.16-.41.5-.67.94-.67.05,0,.1,0,.15.02v.42c-.07-.01-.14-.02-.2-.02-.46,0-.9.34-.9,1.06v2.33h-.42v-3.72Z"/>
        <path class="cls-2" d="m30.24,35.08c.82,0,1.28.65,1.28,1.94s-.46,1.95-1.28,1.95-1.28-.65-1.28-1.95.46-1.94,1.28-1.94Zm0,3.54c.47,0,.83-.41.83-1.6s-.36-1.59-.83-1.59-.83.41-.83,1.59.36,1.6.83,1.6Z"/>
      </g>
      <g>
        <path class="cls-2" d="m11.43,40.88h.42v.71h-.42v-.71Zm0,1.28h.42v3.72h-.42v-3.72Z"/>
        <path class="cls-2" d="m12.69,42.16h.38v.52h.01c.21-.41.57-.6.95-.6.57,0,.95.29.95.99v2.81h-.42v-2.69c0-.51-.21-.76-.64-.76-.49,0-.82.38-.82.95v2.5h-.42v-3.72Z"/>
        <path class="cls-2" d="m15.95,42.51h-.51v-.35h.51v-.44c0-.51.1-.9.81-.9.13,0,.19,0,.27.02v.35c-.06-.01-.13-.02-.2-.02-.31,0-.46.12-.46.55v.44h.66v.35h-.66v3.37h-.42v-3.37Z"/>
        <path class="cls-2" d="m17.49,42.16h.42v.58h.01c.16-.41.5-.67.94-.67.05,0,.1,0,.15.02v.42c-.07-.01-.14-.02-.2-.02-.46,0-.9.34-.9,1.06v2.33h-.42v-3.72Z"/>
        <path class="cls-2" d="m21.72,44.65c-.06.79-.5,1.32-1.2,1.32-.78,0-1.25-.55-1.25-1.95,0-1.29.46-1.94,1.28-1.94s1.2.57,1.2,1.81v.15h-2.03v.17c0,1.07.38,1.4.79,1.4.44,0,.71-.31.78-.97h.42Zm-.41-.96c-.01-.92-.27-1.26-.79-1.26s-.78.34-.79,1.26h1.58Z"/>
        <path class="cls-2" d="m24.65,44.65c-.06.79-.5,1.32-1.18,1.32-.79,0-1.25-.55-1.25-1.95,0-1.29.46-1.94,1.28-1.94.7,0,1.11.43,1.15,1.19h-.42c-.05-.58-.28-.84-.73-.84s-.83.28-.83,1.6c0,1.4.4,1.59.79,1.59.43,0,.7-.31.77-.97h.42Z"/>
        <path class="cls-2" d="m25.26,42.16h.42v2.62c0,.6.2.83.64.83.48,0,.81-.38.81-.95v-2.5h.42v3.72h-.38v-.52h-.01c-.21.41-.57.6-.95.6-.57,0-.95-.29-.95-.99v-2.81Z"/>
        <path class="cls-2" d="m30.66,44.65c-.06.79-.5,1.32-1.2,1.32-.78,0-1.25-.55-1.25-1.95,0-1.29.46-1.94,1.28-1.94s1.2.57,1.2,1.81v.15h-2.03v.17c0,1.07.38,1.4.79,1.4.44,0,.71-.31.78-.97h.42Zm-.41-.96c-.01-.92-.27-1.26-.79-1.26s-.78.34-.79,1.26h1.58Z"/>
        <path class="cls-2" d="m31.35,42.16h.38v.52h.01c.21-.41.57-.6.95-.6.57,0,.95.29.95.99v2.81h-.42v-2.69c0-.51-.21-.76-.64-.76-.49,0-.82.38-.82.95v2.5h-.42v-3.72Z"/>
        <path class="cls-2" d="m34.61,42.51h-.51v-.35h.51v-1.03h.42v1.03h.66v.35h-.66v2.67c0,.29.13.39.4.39.08,0,.17-.01.26-.04v.35s-.15.04-.29.04c-.57,0-.78-.15-.78-.65v-2.76Z"/>
        <path class="cls-2" d="m38.44,44.65c-.06.79-.5,1.32-1.2,1.32-.78,0-1.25-.55-1.25-1.95,0-1.29.46-1.94,1.28-1.94s1.2.57,1.2,1.81v.15h-2.03v.17c0,1.07.38,1.4.79,1.4.44,0,.71-.31.78-.97h.42Zm-.41-.96c-.01-.92-.27-1.26-.79-1.26s-.78.34-.79,1.26h1.58Z"/>
        <path class="cls-2" d="m39.72,44.03c-.52-.2-.71-.51-.71-.88,0-.76.48-1.07,1.11-1.07.7,0,1.02.36,1.02,1.04v.11h-.42v-.11c0-.48-.22-.69-.61-.69-.49,0-.68.26-.68.63,0,.26.08.46.5.62l.61.23c.5.19.69.54.69.95,0,.64-.36,1.11-1.15,1.11s-1.14-.32-1.14-1.16v-.12h.42v.1c0,.55.24.83.71.83.45,0,.74-.25.74-.67,0-.33-.13-.54-.5-.69l-.59-.23Z"/>
      </g>
      <polygon class="cls-1" points="9.95 .5 9.95 87.36 9.95 87.61 10.2 87.61 99.99 87.61 100.24 87.61 100.24 87.36 100.24 .5 100.24 .25 99.99 .25 10.2 .25 9.95 .25 9.95 .5"/>
      <g>
        <path class="cls-2" d="m23.77,74.97h1.49c.83,0,1.3.48,1.3,1.25,0,.6-.24,1.14-.9,1.27h0c.62.07.83.43.85,1.2v.55c.02.27.05.54.22.74h-.53c-.1-.17-.13-.43-.13-.7v-.42c-.04-.88-.2-1.16-1.01-1.16h-.85v2.28h-.45v-5Zm.45,2.34h.77c.71,0,1.12-.32,1.12-.98,0-.61-.26-.98-1.07-.98h-.82v1.96Z"/>
        <path class="cls-2" d="m27.21,77.36c0-.76.36-1.19,1.15-1.19s1.05.4,1.05.99v2.2c0,.21.07.31.22.31h.12v.31c-.08.03-.14.04-.2.04-.33,0-.54-.08-.54-.46v-.13h-.01c-.17.49-.55.63-.96.63-.65,0-.95-.41-.95-1.05,0-.49.22-.88.75-1.03l.79-.22c.29-.08.36-.15.36-.59,0-.48-.27-.64-.64-.64-.5,0-.71.3-.71.84h-.42Zm1.78.51h-.01c-.04.13-.28.2-.45.25l-.35.09c-.42.11-.64.33-.64.77s.22.73.59.73c.51,0,.86-.38.86-1.05v-.79Z"/>
        <path class="cls-2" d="m30.27,76.25h.42v.58h.01c.16-.41.5-.67.94-.67.05,0,.1,0,.15.02v.42c-.07-.01-.14-.02-.2-.02-.46,0-.9.34-.9,1.06v2.33h-.42v-3.72Z"/>
        <path class="cls-2" d="m32.14,77.36c0-.76.36-1.19,1.15-1.19s1.05.4,1.05.99v2.2c0,.21.07.31.22.31h.12v.31c-.08.03-.14.04-.2.04-.33,0-.54-.08-.54-.46v-.13h-.01c-.17.49-.55.63-.96.63-.65,0-.95-.41-.95-1.05,0-.49.22-.88.75-1.03l.79-.22c.29-.08.36-.15.36-.59,0-.48-.27-.64-.64-.64-.5,0-.71.3-.71.84h-.42Zm1.78.51h-.01c-.04.13-.28.2-.45.25l-.35.09c-.42.11-.64.33-.64.77s.22.73.59.73c.51,0,.86-.38.86-1.05v-.79Z"/>
        <path class="cls-2" d="m35.78,78.12c-.52-.2-.71-.51-.71-.88,0-.76.48-1.07,1.11-1.07.7,0,1.02.36,1.02,1.04v.11h-.42v-.11c0-.48-.22-.69-.61-.69-.49,0-.68.26-.68.63,0,.26.08.46.5.62l.61.23c.5.19.69.54.69.95,0,.64-.36,1.11-1.15,1.11s-1.14-.32-1.14-1.16v-.12h.42v.1c0,.55.24.83.71.83.45,0,.74-.25.74-.67,0-.33-.13-.54-.5-.69l-.59-.23Z"/>
      </g>
      <g>
        <path class="cls-4" d="m23.18,82.11h.17v1.25h1.25v-1.25h.17v2.85h-.17v-1.45h-1.25v1.45h-.17v-2.85Z"/>
        <path class="cls-4" d="m25.23,82.11h.15v.41h-.15v-.41Zm0,.76h.15v2.09h-.15v-2.09Z"/>
        <path class="cls-4" d="m25.81,82.87h.15v.37h0c.08-.22.21-.42.54-.42.5,0,.64.48.64,1.09,0,.65-.16,1.1-.65,1.1-.29,0-.48-.17-.53-.45h0v1.11h-.15v-2.79Zm.66,2c.41,0,.51-.43.51-.96,0-.67-.2-.95-.48-.95-.38,0-.54.31-.54.95s.14.96.51.96Z"/>
        <path class="cls-4" d="m27.63,83.91c0,.34,0,.97.49.97.44,0,.51-.44.51-.6h.15c0,.32-.18.73-.65.73-.54,0-.67-.44-.67-1.15,0-.64.23-1.04.7-1.04s.65.41.65,1.08h-1.18Zm1.01-.14c0-.38-.06-.81-.49-.81-.46,0-.52.54-.52.81h1.01Z"/>
        <path class="cls-4" d="m29.14,82.87h.15v.36h0c.08-.24.25-.41.52-.41h.09v.14h-.09c-.36,0-.53.33-.53.68v1.33h-.15v-2.09Z"/>
        <path class="cls-4" d="m30.1,82.87h.15v.36h0c.08-.24.25-.41.52-.41h.09v.14h-.09c-.36,0-.53.33-.53.68v1.33h-.15v-2.09Z"/>
        <path class="cls-4" d="m32.19,84.71c0,.1.04.14.09.14.04,0,.07,0,.1-.02v.12s-.09.04-.16.04-.18-.06-.18-.23v-.13h0c-.06.22-.27.38-.55.38-.36,0-.52-.26-.52-.58s.13-.5.42-.58l.45-.12c.18-.05.2-.13.2-.31,0-.38-.18-.46-.4-.46-.35,0-.46.22-.46.51h-.15c0-.28.1-.64.59-.64.46,0,.57.25.57.55v1.33Zm-.15-.97h0c-.05.08-.11.1-.26.14l-.31.08c-.24.07-.33.21-.33.46,0,.27.12.45.38.45.36,0,.53-.28.53-.7v-.43Z"/>
        <path class="cls-4" d="m32.62,82.87h.15v.36h0c.08-.24.25-.41.52-.41h.09v.14h-.09c-.36,0-.53.33-.53.68v1.33h-.15v-2.09Z"/>
        <path class="cls-4" d="m34.71,84.71c0,.1.04.14.09.14.04,0,.07,0,.1-.02v.12s-.09.04-.16.04-.18-.06-.18-.23v-.13h0c-.06.22-.27.38-.55.38-.36,0-.52-.26-.52-.58s.13-.5.42-.58l.45-.12c.18-.05.2-.13.2-.31,0-.38-.18-.46-.4-.46-.35,0-.46.22-.46.51h-.15c0-.28.1-.64.59-.64.46,0,.57.25.57.55v1.33Zm-.15-.97h0c-.05.08-.11.1-.26.14l-.31.08c-.24.07-.33.21-.33.46,0,.27.12.45.38.45.36,0,.53-.28.53-.7v-.43Z"/>
        <path class="cls-4" d="m36.04,83.46v-.06c0-.19-.05-.44-.39-.44-.22,0-.4.11-.4.39,0,.22.1.33.31.41l.32.12c.25.1.38.27.38.56,0,.35-.27.58-.6.58-.58,0-.62-.42-.62-.66v-.06h.15v.07c0,.3.12.51.47.51.31,0,.44-.2.44-.44,0-.2-.08-.34-.31-.43l-.31-.12c-.26-.1-.39-.26-.39-.52,0-.35.24-.54.57-.54.46,0,.54.32.54.57v.06h-.15Z"/>
      </g>
      <g>
        <path class="cls-2" d="m63.42,37.04c-.06,1.14-.59,1.78-1.48,1.78-1.02,0-1.6-.79-1.6-2.58s.57-2.58,1.6-2.58,1.44.72,1.44,1.54h-.45c0-.68-.34-1.16-.99-1.16-.71,0-1.15.59-1.15,2.21s.43,2.21,1.15,2.21c.63,0,.99-.54,1.04-1.4h.45Z"/>
        <path class="cls-2" d="m65.12,34.93c.82,0,1.28.65,1.28,1.94s-.46,1.95-1.28,1.95-1.28-.65-1.28-1.95.46-1.94,1.28-1.94Zm0,3.54c.47,0,.83-.41.83-1.6s-.36-1.59-.83-1.59-.83.41-.83,1.59.36,1.6.83,1.6Z"/>
        <path class="cls-2" d="m67.04,35.01h.38v.52h.01c.2-.41.53-.6.95-.6.45,0,.72.27.78.65h.01c.17-.41.47-.65.95-.65.52,0,.86.29.86.96v2.84h-.42v-2.78c0-.44-.2-.67-.58-.67-.42,0-.76.38-.76.95v2.5h-.42v-2.78c0-.44-.2-.67-.58-.67-.42,0-.76.38-.76.95v2.5h-.42v-3.72Z"/>
        <path class="cls-2" d="m71.82,35.01h.42v2.62c0,.6.2.83.64.83.48,0,.81-.38.81-.95v-2.5h.42v3.72h-.38v-.52h-.01c-.21.41-.57.6-.95.6-.57,0-.95-.29-.95-.99v-2.81Z"/>
        <path class="cls-2" d="m74.92,35.01h.38v.52h.01c.21-.41.57-.6.95-.6.57,0,.95.29.95.99v2.81h-.42v-2.69c0-.51-.21-.76-.64-.76-.49,0-.82.38-.82.95v2.5h-.42v-3.72Z"/>
        <path class="cls-2" d="m80.32,37.5c-.06.79-.5,1.32-1.2,1.32-.78,0-1.25-.55-1.25-1.95,0-1.29.46-1.94,1.28-1.94s1.2.57,1.2,1.81v.15h-2.03v.17c0,1.07.38,1.4.79,1.4.44,0,.71-.31.78-.97h.42Zm-.41-.96c-.01-.92-.27-1.26-.79-1.26s-.78.34-.79,1.26h1.58Z"/>
        <path class="cls-2" d="m81.6,36.88c-.52-.2-.71-.51-.71-.88,0-.76.48-1.07,1.11-1.07.7,0,1.02.36,1.02,1.04v.11h-.42v-.11c0-.48-.22-.69-.61-.69-.49,0-.68.26-.68.63,0,.26.08.46.5.62l.61.23c.5.19.69.54.69.95,0,.64-.36,1.11-1.15,1.11s-1.14-.32-1.14-1.16v-.12h.42v.1c0,.55.24.83.71.83.45,0,.74-.25.74-.67,0-.33-.13-.54-.5-.69l-.59-.23Z"/>
      </g>
      <g>
        <path class="cls-2" d="m58.9,73.79h2.48v.38h-2.03v1.82h1.9v.38h-1.9v2.42h-.45v-5Z"/>
        <path class="cls-2" d="m61.9,75.07h.42v.58h.01c.16-.41.5-.67.94-.67.05,0,.1,0,.15.02v.42c-.07-.01-.14-.02-.2-.02-.46,0-.9.34-.9,1.06v2.33h-.42v-3.72Z"/>
        <path class="cls-2" d="m66.13,77.56c-.06.79-.5,1.32-1.2,1.32-.78,0-1.25-.55-1.25-1.95,0-1.29.46-1.94,1.28-1.94s1.2.57,1.2,1.81v.15h-2.03v.17c0,1.07.38,1.4.79,1.4.44,0,.71-.31.78-.97h.42Zm-.41-.96c-.01-.92-.27-1.26-.79-1.26s-.78.34-.79,1.26h1.58Z"/>
        <path class="cls-2" d="m69.06,77.56c-.06.79-.5,1.32-1.18,1.32-.79,0-1.25-.55-1.25-1.95,0-1.29.46-1.94,1.28-1.94.7,0,1.11.43,1.15,1.19h-.42c-.05-.58-.28-.84-.73-.84s-.83.28-.83,1.6c0,1.4.4,1.59.79,1.59.43,0,.7-.31.77-.97h.42Z"/>
        <path class="cls-2" d="m69.67,75.07h.42v2.62c0,.6.2.83.64.83.48,0,.81-.38.81-.95v-2.5h.42v3.72h-.38v-.52h-.01c-.21.41-.57.6-.95.6-.57,0-.95-.29-.95-.99v-2.81Z"/>
        <path class="cls-2" d="m75.07,77.56c-.06.79-.5,1.32-1.2,1.32-.78,0-1.25-.55-1.25-1.95,0-1.29.46-1.94,1.28-1.94s1.2.57,1.2,1.81v.15h-2.03v.17c0,1.07.38,1.4.79,1.4.44,0,.71-.31.78-.97h.42Zm-.41-.96c-.01-.92-.27-1.26-.79-1.26s-.78.34-.79,1.26h1.58Z"/>
        <path class="cls-2" d="m75.76,75.07h.38v.52h.01c.21-.41.57-.6.95-.6.57,0,.95.29.95.99v2.81h-.42v-2.69c0-.51-.21-.76-.64-.76-.49,0-.82.38-.82.95v2.5h-.42v-3.72Z"/>
        <path class="cls-2" d="m79.03,75.42h-.51v-.35h.51v-1.03h.42v1.03h.66v.35h-.66v2.67c0,.29.13.39.4.39.08,0,.17-.01.26-.04v.35s-.15.04-.29.04c-.57,0-.78-.15-.78-.65v-2.76Z"/>
        <path class="cls-2" d="m82.85,77.56c-.06.79-.5,1.32-1.2,1.32-.78,0-1.25-.55-1.25-1.95,0-1.29.46-1.94,1.28-1.94s1.2.57,1.2,1.81v.15h-2.03v.17c0,1.07.38,1.4.79,1.4.44,0,.71-.31.78-.97h.42Zm-.41-.96c-.01-.92-.27-1.26-.79-1.26s-.78.34-.79,1.26h1.58Z"/>
        <path class="cls-2" d="m84.13,76.94c-.52-.2-.71-.51-.71-.88,0-.76.48-1.07,1.11-1.07.7,0,1.02.36,1.02,1.04v.11h-.42v-.11c0-.48-.22-.69-.61-.69-.49,0-.68.26-.68.63,0,.26.08.46.5.62l.61.23c.5.19.69.54.69.95,0,.64-.36,1.11-1.15,1.11s-1.14-.32-1.14-1.16v-.12h.42v.1c0,.55.24.83.71.83.45,0,.74-.25.74-.67,0-.33-.13-.54-.5-.69l-.59-.23Z"/>
      </g>
      <g>
        <path class="cls-2" d="m56.22,82.07h.38v.53h.01c.13-.34.44-.62.92-.62.83,0,1.18.66,1.18,1.95s-.37,1.94-1.19,1.94c-.46,0-.78-.25-.87-.64h-.01v1.79h-.42v-4.95Zm1.25.27c-.24,0-.45.13-.59.33-.18.26-.24.62-.24,1.27,0,1.37.39,1.59.81,1.59s.81-.22.81-1.59-.39-1.6-.8-1.6Z"/>
        <path class="cls-2" d="m61.66,84.56c-.06.79-.5,1.32-1.2,1.32-.78,0-1.25-.55-1.25-1.95,0-1.29.46-1.94,1.28-1.94s1.2.57,1.2,1.81v.15h-2.03v.17c0,1.07.38,1.4.79,1.4.44,0,.71-.31.78-.97h.42Zm-.41-.96c-.01-.92-.27-1.26-.79-1.26s-.78.34-.79,1.26h1.58Z"/>
        <path class="cls-2" d="m62.35,82.07h.42v.58h.01c.16-.41.5-.67.94-.67.05,0,.1,0,.15.02v.42c-.07-.01-.14-.02-.2-.02-.46,0-.9.34-.9,1.06v2.33h-.42v-3.72Z"/>
        <path class="cls-2" d="m65.38,81.99c.82,0,1.28.65,1.28,1.94s-.46,1.95-1.28,1.95-1.28-.65-1.28-1.95.46-1.94,1.28-1.94Zm0,3.54c.47,0,.83-.41.83-1.6s-.36-1.59-.83-1.59-.83.41-.83,1.59.36,1.6.83,1.6Z"/>
        <path class="cls-2" d="m71.25,84.56c-.06.79-.5,1.32-1.2,1.32-.78,0-1.25-.55-1.25-1.95,0-1.29.46-1.94,1.28-1.94s1.2.57,1.2,1.81v.15h-2.03v.17c0,1.07.38,1.4.79,1.4.44,0,.71-.31.78-.97h.42Zm-.41-.96c-.01-.92-.27-1.26-.79-1.26s-.78.34-.79,1.26h1.58Z"/>
        <path class="cls-2" d="m72.53,83.94c-.52-.2-.71-.51-.71-.88,0-.76.48-1.07,1.11-1.07.7,0,1.02.36,1.02,1.04v.11h-.42v-.11c0-.48-.22-.69-.61-.69-.49,0-.68.26-.68.63,0,.26.08.46.5.62l.61.23c.5.19.69.54.69.95,0,.64-.36,1.11-1.15,1.11s-1.14-.32-1.14-1.16v-.12h.42v.1c0,.55.24.83.71.83.45,0,.74-.25.74-.67,0-.33-.13-.54-.5-.69l-.59-.23Z"/>
        <path class="cls-2" d="m76.9,84.56c-.06.79-.5,1.32-1.18,1.32-.78,0-1.25-.55-1.25-1.95,0-1.29.46-1.94,1.28-1.94.7,0,1.11.43,1.15,1.19h-.42c-.05-.58-.28-.84-.73-.84s-.83.28-.83,1.6c0,1.4.4,1.59.79,1.59.43,0,.7-.31.77-.97h.42Z"/>
        <path class="cls-2" d="m77.44,83.18c0-.76.36-1.19,1.15-1.19s1.05.4,1.05.99v2.2c0,.21.07.31.22.31h.12v.31c-.08.03-.14.04-.2.04-.33,0-.54-.08-.54-.46v-.13h-.01c-.17.49-.55.63-.96.63-.65,0-.95-.41-.95-1.05,0-.49.22-.88.75-1.03l.79-.22c.29-.08.36-.15.36-.59,0-.48-.27-.64-.64-.64-.5,0-.71.3-.71.84h-.42Zm1.78.51h-.01c-.04.13-.28.2-.45.25l-.35.09c-.42.11-.64.33-.64.77s.22.73.59.73c.51,0,.86-.38.86-1.05v-.79Z"/>
        <path class="cls-2" d="m81.08,83.94c-.52-.2-.71-.51-.71-.88,0-.76.48-1.07,1.11-1.07.7,0,1.02.36,1.02,1.04v.11h-.42v-.11c0-.48-.22-.69-.61-.69-.49,0-.68.26-.68.63,0,.26.08.46.5.62l.61.23c.5.19.69.54.69.95,0,.64-.36,1.11-1.15,1.11s-1.14-.32-1.14-1.16v-.12h.42v.1c0,.55.24.83.71.83.45,0,.74-.25.74-.67,0-.33-.13-.54-.5-.69l-.59-.23Z"/>
        <path class="cls-2" d="m83.14,83.18c0-.76.36-1.19,1.15-1.19s1.05.4,1.05.99v2.2c0,.21.07.31.22.31h.12v.31c-.08.03-.14.04-.2.04-.33,0-.54-.08-.54-.46v-.13h-.01c-.17.49-.55.63-.96.63-.65,0-.95-.41-.95-1.05,0-.49.22-.88.75-1.03l.79-.22c.29-.08.36-.15.36-.59,0-.48-.27-.64-.64-.64-.5,0-.71.3-.71.84h-.42Zm1.78.51h-.01c-.04.13-.28.2-.45.25l-.35.09c-.42.11-.64.33-.64.77s.22.73.59.73c.51,0,.86-.38.86-1.05v-.79Z"/>
        <path class="cls-2" d="m86.79,83.94c-.52-.2-.71-.51-.71-.88,0-.76.48-1.07,1.11-1.07.7,0,1.02.36,1.02,1.04v.11h-.42v-.11c0-.48-.22-.69-.61-.69-.49,0-.68.26-.68.63,0,.26.08.46.5.62l.61.23c.5.19.69.54.69.95,0,.64-.36,1.11-1.15,1.11s-1.14-.32-1.14-1.16v-.12h.42v.1c0,.55.24.83.71.83.45,0,.74-.25.74-.67,0-.33-.13-.54-.5-.69l-.59-.23Z"/>
      </g>
      <g>
        <path class="cls-3" d="m33.51,92.64h.52l1.64,3.73h.01v-3.73h.38v4.28h-.52l-1.64-3.73h-.01v3.73h-.38v-4.28Z"/>
        <path class="cls-3" d="m36.75,93.74h.36v2.24c0,.52.17.71.55.71.41,0,.7-.32.7-.82v-2.14h.36v3.18h-.32v-.44h-.01c-.18.35-.49.52-.82.52-.49,0-.82-.25-.82-.85v-2.41Zm1.6-1.24l-.59.85h-.29l.45-.85h.43Z"/>
        <path class="cls-3" d="m39.44,93.74h.32v.44h.01c.17-.35.46-.52.81-.52.38,0,.62.23.67.56h.01c.14-.35.4-.56.81-.56.44,0,.74.25.74.82v2.43h-.36v-2.38c0-.38-.17-.58-.5-.58-.36,0-.65.32-.65.82v2.14h-.36v-2.38c0-.38-.17-.58-.5-.58-.36,0-.65.32-.65.82v2.14h-.36v-3.18Z"/>
        <path class="cls-3" d="m45.49,95.87c-.05.68-.43,1.13-1.03,1.13-.67,0-1.07-.47-1.07-1.67,0-1.1.4-1.66,1.1-1.66s1.03.49,1.03,1.55v.13h-1.74v.15c0,.92.32,1.2.68,1.2.38,0,.61-.27.67-.83h.36Zm-.35-.82c-.01-.79-.23-1.08-.68-1.08s-.67.29-.68,1.08h1.36Z"/>
        <path class="cls-3" d="m46.08,93.74h.36v.5h.01c.14-.35.43-.57.8-.57.04,0,.08,0,.13.02v.36c-.06-.01-.12-.02-.17-.02-.4,0-.77.29-.77.91v1.99h-.36v-3.18Z"/>
        <path class="cls-3" d="m48.68,93.67c.7,0,1.1.56,1.1,1.66s-.4,1.67-1.1,1.67-1.1-.56-1.1-1.67.4-1.66,1.1-1.66Zm0,3.03c.4,0,.71-.35.71-1.37s-.31-1.36-.71-1.36-.71.35-.71,1.36.31,1.37.71,1.37Z"/>
        <path class="cls-3" d="m53.43,96.4h-.01c-.1.37-.4.6-.78.6-.7,0-1.02-.56-1.02-1.67s.32-1.66,1.02-1.66c.4,0,.67.22.74.55h.01v-1.58h.36v4.28h-.32v-.53Zm-.73.3c.37,0,.7-.19.7-1.37s-.33-1.36-.7-1.36-.7.19-.7,1.36.34,1.37.7,1.37Z"/>
        <path class="cls-3" d="m56.37,95.87c-.05.68-.43,1.13-1.03,1.13-.67,0-1.07-.47-1.07-1.67,0-1.1.4-1.66,1.1-1.66s1.03.49,1.03,1.55v.13h-1.74v.15c0,.92.32,1.2.68,1.2.38,0,.61-.27.67-.83h.36Zm-.35-.82c-.01-.79-.23-1.08-.68-1.08s-.67.29-.68,1.08h1.36Z"/>
        <path class="cls-3" d="m58.37,93.74h.32v.46h.01c.11-.29.38-.53.79-.53.71,0,1.01.56,1.01,1.67s-.32,1.66-1.02,1.66c-.4,0-.67-.22-.74-.55h-.01v1.54h-.36v-4.24Zm1.07.23c-.2,0-.38.11-.5.28-.16.22-.2.53-.2,1.09,0,1.17.33,1.36.7,1.36s.7-.19.7-1.36-.33-1.37-.68-1.37Z"/>
        <path class="cls-3" d="m61.01,94.69c0-.65.31-1.02.98-1.02s.9.34.9.84v1.88c0,.18.06.26.19.26h.1v.26c-.07.02-.12.04-.17.04-.28,0-.46-.07-.46-.4v-.11h-.01c-.14.42-.47.54-.82.54-.56,0-.81-.35-.81-.9,0-.42.19-.76.64-.88l.68-.19c.25-.07.31-.13.31-.5,0-.41-.23-.55-.55-.55-.43,0-.61.26-.61.72h-.36Zm1.52.44h-.01c-.04.11-.24.17-.38.21l-.3.08c-.36.1-.55.28-.55.66s.19.62.5.62c.44,0,.74-.33.74-.9v-.67Z"/>
        <path class="cls-3" d="m63.63,93.74h.36v.5h.01c.14-.35.43-.57.8-.57.04,0,.08,0,.13.02v.36c-.06-.01-.12-.02-.17-.02-.4,0-.77.29-.77.91v1.99h-.36v-3.18Z"/>
        <path class="cls-3" d="m67.21,95.87c-.05.68-.43,1.13-1.01,1.13-.67,0-1.07-.47-1.07-1.67,0-1.1.4-1.66,1.1-1.66.6,0,.95.37.98,1.02h-.36c-.04-.5-.24-.72-.62-.72s-.71.24-.71,1.37c0,1.2.34,1.36.68,1.36.37,0,.6-.27.66-.83h.36Z"/>
        <path class="cls-3" d="m69.7,95.87c-.05.68-.43,1.13-1.03,1.13-.67,0-1.07-.47-1.07-1.67,0-1.1.4-1.66,1.1-1.66s1.03.49,1.03,1.55v.13h-1.74v.15c0,.92.32,1.2.68,1.2.38,0,.61-.27.67-.83h.36Zm-.35-.82c-.01-.79-.23-1.08-.68-1.08s-.67.29-.68,1.08h1.36Z"/>
        <path class="cls-3" d="m70.32,92.64h.36v4.28h-.36v-4.28Z"/>
        <path class="cls-3" d="m71.33,94.69c0-.65.31-1.02.98-1.02s.9.34.9.84v1.88c0,.18.06.26.19.26h.1v.26c-.07.02-.12.04-.17.04-.28,0-.46-.07-.46-.4v-.11h-.01c-.14.42-.47.54-.82.54-.56,0-.81-.35-.81-.9,0-.42.19-.76.64-.88l.68-.19c.25-.07.31-.13.31-.5,0-.41-.23-.55-.55-.55-.43,0-.61.26-.61.72h-.36Zm1.52.44h-.01c-.04.11-.24.17-.38.21l-.3.08c-.36.1-.55.28-.55.66s.19.62.5.62c.44,0,.74-.33.74-.9v-.67Z"/>
        <path class="cls-3" d="m74.46,95.34c-.45-.17-.61-.44-.61-.76,0-.65.41-.92.95-.92.6,0,.88.31.88.89v.09h-.36v-.09c0-.41-.19-.59-.52-.59-.42,0-.58.22-.58.54,0,.22.07.4.43.53l.52.2c.43.16.59.46.59.81,0,.55-.31.95-.98.95s-.98-.27-.98-.99v-.1h.36v.08c0,.47.2.71.61.71.38,0,.63-.22.63-.57,0-.28-.11-.46-.43-.59l-.5-.2Z"/>
      </g>
      <g>
        <path class="cls-3" d="m.14,68.82v-.52l3.73-1.64h0s-3.73-.01-3.73-.01v-.38h4.28v.52l-3.73,1.64h0s3.73.01,3.73.01v.38H.14Z"/>
        <path class="cls-3" d="m0,63.98l.85.59v.29l-.85-.45v-.43Zm1.24,1.6v-.36h2.24c.52,0,.71-.17.71-.55,0-.41-.32-.7-.82-.7H1.24v-.36h3.18v.32h-.44c.35.19.52.5.52.83,0,.49-.25.82-.85.82H1.24Z"/>
        <path class="cls-3" d="m1.24,62.89v-.32h.44c-.35-.18-.52-.47-.52-.82,0-.38.23-.62.56-.67h0c-.35-.16-.56-.41-.56-.82,0-.44.25-.74.82-.74h2.43v.36h-2.38c-.38,0-.58.17-.58.5,0,.36.32.65.82.65h2.14v.36h-2.38c-.38,0-.58.17-.58.5,0,.36.32.65.82.65h2.14v.36H1.24Z"/>
        <path class="cls-3" d="m3.37,56.84c.68.05,1.13.43,1.13,1.03,0,.67-.47,1.07-1.67,1.07-1.1,0-1.66-.4-1.66-1.1s.49-1.03,1.55-1.03h.13v1.74h.15c.92,0,1.2-.32,1.2-.68,0-.38-.27-.61-.83-.67v-.36Zm-.82.35c-.79.01-1.08.23-1.08.68s.29.67,1.08.68v-1.36Z"/>
        <path class="cls-3" d="m1.24,56.25v-.36h.5c-.35-.15-.57-.44-.57-.82,0-.04,0-.08.02-.13h.36c-.01.06-.02.12-.02.17,0,.4.29.77.91.77h1.99v.36H1.24Z"/>
        <path class="cls-3" d="m1.17,53.65c0-.7.56-1.1,1.66-1.1s1.67.4,1.67,1.1-.56,1.1-1.67,1.1-1.66-.4-1.66-1.1Zm3.03,0c0-.4-.35-.71-1.37-.71s-1.36.31-1.36.71.35.71,1.36.71,1.37-.31,1.37-.71Z"/>
        <path class="cls-3" d="m1.54,50.45v.44h-.3v-.44H.36v-.36h.88v-.56h.3v.56h2.29c.25,0,.34-.11.34-.34,0-.07-.01-.14-.04-.22h.3s.04.13.04.25c0,.49-.13.67-.56.67H1.54Z"/>
        <path class="cls-3" d="m1.17,48.21c0-.7.56-1.1,1.66-1.1s1.67.4,1.67,1.1-.56,1.1-1.67,1.1-1.66-.4-1.66-1.1Zm3.03,0c0-.4-.35-.71-1.37-.71s-1.36.31-1.36.71.35.71,1.36.71,1.37-.31,1.37-.71Z"/>
        <path class="cls-3" d="m1.54,46.45v.44h-.3v-.44H.36v-.36h.88v-.56h.3v.56h2.29c.25,0,.34-.11.34-.34,0-.07-.01-.14-.04-.22h.3s.04.13.04.25c0,.49-.13.67-.56.67H1.54Z"/>
        <path class="cls-3" d="m2.19,45.2c-.65,0-1.02-.31-1.02-.98s.34-.9.84-.9h1.88c.18,0,.26-.06.26-.19v-.1h.26c.02.07.04.12.04.17,0,.28-.07.46-.4.46h-.11c.42.16.54.48.54.83,0,.56-.35.81-.9.81-.42,0-.76-.19-.88-.64l-.19-.68c-.07-.25-.13-.31-.5-.31-.41,0-.55.23-.55.55,0,.43.26.61.72.61v.36Zm.44-1.52h0c.11.05.17.25.21.4l.08.3c.1.36.28.55.66.55s.62-.19.62-.5c0-.44-.33-.74-.9-.74h-.67Z"/>
        <path class="cls-3" d="m.14,42.55v-.36h4.28v.36H.14Z"/>
        <path class="cls-3" d="m3.9,38.36h0c.37.11.6.41.6.79,0,.7-.56,1.02-1.67,1.02s-1.66-.32-1.66-1.02c0-.4.22-.67.55-.74h0s-1.58-.01-1.58-.01v-.36h4.28v.32h-.53Zm.3.73c0-.37-.19-.7-1.37-.7s-1.36.33-1.36.7.19.7,1.36.7,1.37-.34,1.37-.7Z"/>
        <path class="cls-3" d="m3.37,35.41c.68.05,1.13.43,1.13,1.03,0,.67-.47,1.07-1.67,1.07-1.1,0-1.66-.4-1.66-1.1s.49-1.03,1.55-1.03h.13v1.74h.15c.92,0,1.2-.32,1.2-.68,0-.38-.27-.61-.83-.67v-.36Zm-.82.35c-.79.01-1.08.23-1.08.68s.29.67,1.08.68v-1.36Z"/>
        <path class="cls-3" d="m.14,33.35v-.36h.61v.36H.14Zm1.1,0v-.36h3.18v.36H1.24Z"/>
        <path class="cls-3" d="m1.24,32.27v-.32h.44c-.35-.19-.52-.5-.52-.83,0-.49.25-.82.85-.82h2.4v.36h-2.3c-.44,0-.65.18-.65.55,0,.42.32.7.82.7h2.14v.36H1.24Z"/>
        <path class="cls-3" d="m3.9,27.93h0c.37.11.6.41.6.79,0,.7-.56,1.02-1.67,1.02s-1.66-.32-1.66-1.02c0-.4.22-.67.55-.74h0s-1.58-.01-1.58-.01v-.36h4.28v.32h-.53Zm.3.73c0-.37-.19-.7-1.37-.7s-1.36.33-1.36.7.19.7,1.36.7,1.37-.34,1.37-.7Z"/>
        <path class="cls-3" d="m.14,26.92v-.36h.61v.36H.14Zm1.1,0v-.36h3.18v.36H1.24Z"/>
        <path class="cls-3" d="m1.24,26.15v-.38l2.78-.71h0s-2.78-.66-2.78-.66v-.38l3.18.84v.41l-3.18.89Z"/>
        <path class="cls-3" d="m.14,23.6v-.36h.61v.36H.14Zm1.1,0v-.36h3.18v.36H1.24Z"/>
        <path class="cls-3" d="m3.9,20.84h0c.37.11.6.41.6.79,0,.7-.56,1.02-1.67,1.02s-1.66-.32-1.66-1.02c0-.4.22-.67.55-.74h0s-1.58-.01-1.58-.01v-.36h4.28v.32h-.53Zm.3.73c0-.37-.19-.7-1.37-.7s-1.36.33-1.36.7.19.7,1.36.7,1.37-.34,1.37-.7Z"/>
        <path class="cls-3" d="m1.24,19.85v-.36h2.24c.52,0,.71-.17.71-.55,0-.41-.32-.7-.82-.7H1.24v-.36h3.18v.32h-.44c.35.19.52.5.52.83,0,.49-.25.82-.85.82H1.24Z"/>
        <path class="cls-3" d="m1.17,16.26c0-.7.56-1.1,1.66-1.1s1.67.4,1.67,1.1-.56,1.1-1.67,1.1-1.66-.4-1.66-1.1Zm3.03,0c0-.4-.35-.71-1.37-.71s-1.36.31-1.36.71.35.71,1.36.71,1.37-.31,1.37-.71Z"/>
        <path class="cls-3" d="m2.84,14.13c-.17.45-.44.61-.76.61-.65,0-.92-.41-.92-.95,0-.6.31-.88.89-.88h.09v.36h-.09c-.41,0-.59.19-.59.52,0,.42.22.58.54.58.22,0,.4-.07.53-.43l.2-.52c.16-.43.46-.59.81-.59.55,0,.95.31.95.98s-.27.98-.99.98h-.1v-.36h.08c.47,0,.71-.2.71-.61,0-.38-.22-.63-.57-.63-.28,0-.46.11-.59.43l-.2.5Z"/>
      </g>
      <line class="cls-1" x1="42.31" x2="42.31" y2="87.86"/>
      <line class="cls-1" x1="100.27" y1="72.66" x2="10.09" y2="72.66"/>
      <polygon class="cls-1" points="10.19 81.09 10.19 87.25 10.19 87.5 10.44 87.5 16.6 87.5 16.85 87.5 16.85 87.25 16.85 81.09 16.85 80.84 16.6 80.84 10.44 80.84 10.19 80.84 10.19 81.09"/>
      <line class="cls-1" x1="16.94" y1="83.55" x2="20.29" y2="83.55"/>
    </g>
  </g>
</svg>